<?xml version="1.0" encoding="UTF-8"?>
<!-- Generated by Pixelmator Pro 3.4.1 -->
<svg width="1080" height="1050" viewBox="0 0 1080 1050" xmlns="http://www.w3.org/2000/svg">
    <path id="Shape" fill="#ffffff" fill-rule="evenodd" stroke="none" d="M 547.781433 931.853088 C 543.93988 931.894226 517.673645 915.090088 489.411835 894.51123 C 461.149994 873.932373 416.611084 838.867859 390.436768 816.590332 C 364.262451 794.312256 321.8862 754.291626 296.267548 727.654663 C 270.648865 701.0177 235.391525 660.253235 217.918365 637.067688 C 200.444962 613.88208 176.725815 578.96582 165.208969 559.476196 C 153.692123 539.986572 137.236832 508.126892 128.641754 488.67688 C 120.046402 469.226868 108.457718 435.473938 102.888939 413.670471 C 97.320152 391.867004 91.672836 358.65918 90.339546 339.875305 C 88.708336 316.892517 90.070984 294.690186 94.506027 271.987976 C 98.434578 251.879578 108.138428 223.974731 118.530037 202.904297 C 130.769409 178.086975 143.676193 159.869812 161.849731 141.759766 C 176.086975 127.572083 199.479095 109.750244 213.832489 102.155579 C 228.185608 94.560913 254.763428 84.451599 272.894196 79.690125 C 297.907501 73.121338 313.491699 71.57196 337.5 73.267029 C 354.902344 74.495789 381.871552 79.43689 397.431274 84.248291 C 412.991272 89.059204 439.648895 102.305908 456.670685 113.685547 C 473.6922 125.065247 497.636627 145.888062 509.880371 159.958862 C 529.83136 182.887085 533.809875 185.542175 548.211914 185.542175 C 562.692505 185.542175 566.640137 182.857727 588.121948 158.400208 C 601.233948 143.472351 623.325195 123.673828 637.213806 114.403137 C 651.102417 105.132935 673.308777 93.493286 686.561646 88.536743 C 699.81427 83.580688 725.161743 77.412354 742.889343 74.829834 C 769.432922 70.962463 781.152649 71.321777 809.30011 76.864685 C 828.099121 80.566772 854.30719 88.55011 867.54126 94.606201 C 880.77478 100.662292 900.933838 112.688965 912.339172 121.332764 C 923.744568 129.976013 941.725708 148.433533 952.297852 162.349426 C 962.869446 176.265259 975.902161 197.459778 981.258972 209.448914 C 986.615845 221.438049 993.840088 242.311829 997.312622 255.834473 C 1000.784607 269.357544 1004.680969 291.98822 1005.971008 306.124939 C 1007.34967 321.237061 1005.652771 347.300598 1001.852173 369.37793 C 998.296753 390.030396 990.579163 422.108337 984.70166 440.662659 C 978.824158 459.21698 965.732727 491.476135 955.60968 512.349426 C 945.486633 533.222656 925.808594 567.379761 911.880859 588.253052 C 897.953613 609.126343 873.744751 642.334106 858.083008 662.048218 C 842.421875 681.762268 806.685547 720.66272 778.669373 748.494019 C 750.653503 776.325195 704.950439 817.395386 677.107849 839.760437 C 649.264954 862.125977 610.347595 891.979187 590.625 906.10144 C 570.902405 920.223755 551.622681 931.81189 547.781433 931.853088 Z"/>
    <path id="path1" fill="#000000" fill-rule="evenodd" stroke="none" d="M 854.296875 504.128784 C 849.656372 505.228271 841.113281 503.677307 835.3125 500.681458 C 829.511719 497.686096 822.304504 490.104797 819.296997 483.835083 C 814.37323 473.571411 815.320313 469.042114 828.79895 438.400818 C 837.032532 419.681763 846.713196 392.608276 850.310913 378.237366 C 853.909119 363.866455 857.226624 338.825195 857.683899 322.590332 C 858.141235 306.35553 857.092224 288.000427 855.3526 281.80072 C 853.613464 275.601501 847.204529 264.607422 841.111206 257.368958 C 835.017944 250.130981 822.203064 240.207031 812.633606 235.316345 C 803.06366 230.426147 785.742188 223.928955 774.140625 220.878479 C 762.539063 217.828064 749.724731 211.265442 745.664063 206.295532 C 741.603394 201.325073 738.28125 192.63855 738.28125 186.991699 C 738.28125 181.344849 743.190063 171.818298 749.189636 165.821411 C 759.111816 155.903625 762.330994 155.120728 784.801819 157.157043 C 798.388672 158.388855 819.916016 164.160278 832.640259 169.983215 C 845.363953 175.805603 864.460083 188.572021 875.074951 198.352356 C 886.259338 208.656677 900.141296 227.836975 908.086426 243.961609 C 920.791138 269.747742 921.796875 274.889648 921.796875 314.057251 C 921.796875 339.838257 918.904236 368.395752 914.380615 387.270813 C 910.301941 404.291138 901.02655 432.474426 893.768372 449.900452 C 886.510681 467.326904 876.559143 486.207092 871.653381 491.857056 C 866.748169 497.50647 858.937378 503.028748 854.296875 504.128784 Z"/>
</svg>
