<?xml version="1.0" standalone="no"?>
<!DOCTYPE svg PUBLIC "-//W3C//DTD SVG 20010904//EN"
 "http://www.w3.org/TR/2001/REC-SVG-20010904/DTD/svg10.dtd">
<svg version="1.0" xmlns="http://www.w3.org/2000/svg"
 width="1024.000000pt" height="1024.000000pt" viewBox="0 0 1024.000000 1024.000000"
 preserveAspectRatio="xMidYMid meet">
<metadata>
Created by potrace 1.14, written by Peter Selinger 2001-2017
</metadata>
<g transform="translate(0.000000,1024.000000) scale(0.100000,-0.100000)"
fill="#000000" stroke="none">
<path d="M4907 7844 c-1 -1 -54 -4 -117 -8 -63 -3 -126 -8 -140 -10 -401 -55
-1042 -315 -1320 -536 -157 -125 -242 -160 -390 -160 -91 0 -241 26 -321 56
-63 23 -81 29 -139 40 -14 3 -56 11 -95 19 -38 7 -108 19 -155 25 -47 6 -98
12 -115 15 -140 19 -575 27 -685 13 -130 -17 -330 -69 -460 -120 -41 -16 -129
-57 -195 -91 -102 -53 -133 -75 -206 -147 -58 -57 -95 -104 -114 -143 -15 -31
-31 -59 -35 -62 -4 -2 -18 -33 -31 -67 -20 -55 -23 -81 -23 -208 0 -164 6
-215 38 -333 61 -217 185 -439 328 -587 40 -41 161 -148 191 -169 12 -8 29
-22 37 -30 58 -57 394 -286 605 -411 280 -167 401 -255 541 -395 98 -98 132
-146 184 -265 43 -98 71 -151 155 -295 142 -242 403 -552 654 -775 40 -36 78
-70 84 -75 100 -89 321 -248 387 -278 8 -4 31 -17 50 -28 216 -132 570 -258
960 -343 141 -31 266 -56 300 -61 14 -2 43 -6 65 -10 22 -3 51 -8 65 -10 51
-8 228 -18 310 -18 124 1 242 18 435 63 66 16 131 31 145 34 14 3 35 7 46 10
12 2 39 7 60 10 195 31 400 94 574 176 155 74 225 91 344 85 111 -6 105 -5
296 -48 85 -20 166 -38 180 -41 14 -2 48 -10 75 -16 77 -18 91 -21 205 -45 14
-2 36 -7 50 -10 14 -3 36 -7 50 -10 14 -3 36 -7 50 -10 14 -2 41 -7 60 -10 19
-3 42 -8 50 -10 8 -2 35 -7 60 -10 25 -3 52 -8 60 -10 15 -5 193 -33 240 -39
14 -2 59 -9 100 -15 112 -19 113 -19 176 -26 33 -4 70 -9 84 -11 101 -16 345
-22 420 -11 175 25 314 73 375 128 114 103 284 307 333 399 41 76 55 146 55
269 0 145 -24 262 -99 481 -128 375 -156 435 -254 549 -166 192 -334 327 -660
531 -202 127 -512 292 -645 344 -164 65 -279 130 -347 198 -42 42 -63 86 -72
149 -3 24 -8 58 -11 74 -3 17 -7 46 -10 65 -9 54 -62 296 -85 385 -72 276
-202 596 -294 718 -152 203 -301 347 -546 528 -274 203 -499 337 -675 402
-107 40 -380 105 -555 133 -19 3 -51 9 -70 14 -19 5 -64 12 -100 15 -36 4 -74
9 -84 11 -11 2 -92 6 -180 10 -218 8 -247 9 -249 8z m-2867 -1027 c14 -3 48
-8 75 -11 97 -12 175 -25 320 -56 50 -10 110 -21 134 -24 24 -3 47 -8 50 -12
3 -3 -10 -33 -29 -67 -18 -34 -39 -72 -44 -84 -6 -13 -14 -23 -18 -23 -5 0 -8
-4 -8 -9 0 -5 -21 -46 -46 -92 -145 -262 -269 -537 -368 -819 -44 -124 -56
-143 -96 -146 -81 -6 -223 106 -524 411 -173 175 -243 277 -295 431 -28 85
-42 241 -27 309 3 11 5 24 5 29 2 24 107 106 160 126 110 41 189 49 446 45
132 -2 251 -5 265 -8z m5879 -2078 c87 -28 402 -175 535 -249 222 -123 458
-340 573 -525 37 -60 99 -207 111 -265 14 -70 7 -173 -15 -215 -71 -134 -308
-280 -526 -323 -48 -10 -229 -9 -372 2 -87 7 -114 10 -272 31 -23 3 -55 7 -70
9 -425 56 -516 74 -554 109 -15 14 -19 27 -15 47 8 44 74 205 136 335 32 66
70 147 84 179 59 129 146 371 146 405 0 9 16 84 34 167 63 278 80 316 138 309
17 -3 47 -10 67 -16z"/>
</g>
</svg>
