<?xml version="1.0" encoding="UTF-8"?>
<svg width="250" height="250" viewBox="0 0 250 250" xmlns="http://www.w3.org/2000/svg">
    <path stroke-linecap="round" stroke-linejoin="round" stroke-width="20" fill="none" stroke="white" fill-rule="evenodd" d="M 117.272446 189.838455 C 113.751671 189.784454 108.199532 189.149017 104.934586 188.426392 C 101.669525 187.703766 96.129768 186.014404 92.624016 184.672333 C 89.118149 183.329987 83.369095 180.589157 79.84832 178.581116 C 76.327545 176.573303 71.302811 172.839584 68.682243 170.283997 C 66.061684 167.728424 62.615322 163.754456 61.023727 161.453156 C 58.928284 158.423416 57.117764 157.01062 54.462578 156.333282 C 52.445641 155.818909 48.357906 155.183716 45.378723 154.921936 C 42.399544 154.660156 36.195087 153.705765 31.590887 152.801025 C 26.986685 151.896057 21.407137 150.31665 19.191715 149.291077 C 16.976294 148.265503 13.700889 146.186493 11.91285 144.671265 C 10.124933 143.156036 7.839783 140.558075 6.834741 138.898254 C 5.829698 137.238205 5.005708 134.944397 5.003784 133.800659 C 5.00174 132.657135 5.750593 130.205933 6.667995 128.353851 C 7.585277 126.501999 10.355155 122.958855 12.823279 120.480774 C 15.291285 118.002441 19.526529 114.721329 22.234854 113.189377 C 24.94318 111.657196 31.076824 109.105728 35.865322 107.519287 C 40.653702 105.932861 46.045948 104.634842 47.848049 104.634842 C 49.650036 104.634842 53.049866 103.803482 55.403183 102.787598 C 58.95834 101.252747 60.179417 99.953049 62.624943 95.100266 C 64.48896 91.401413 68.637405 86.168686 73.939247 80.828918 C 80.306595 74.415863 84.103157 71.513245 89.799683 68.702911 C 93.918793 66.670898 99.90168 64.281433 103.095093 63.393173 C 106.288513 62.504654 111.840286 61.230377 115.432358 60.561035 C 120.621666 59.594055 123.757736 59.600113 130.697464 60.59082 C 135.501114 61.276627 142.396942 62.796234 146.021469 63.968079 C 149.645874 65.139679 154.606415 67.429352 157.044724 69.055984 C 159.48291 70.682617 164.203842 75.224457 167.535629 79.149002 C 170.86731 83.073547 174.917526 88.616989 176.535934 91.467773 C 178.889969 95.614151 180.201218 96.853073 183.091309 97.661667 C 185.078323 98.217438 189.441833 98.674881 192.788055 98.677795 C 196.134262 98.680939 202.338837 99.122406 206.575882 99.659286 C 210.813049 100.195938 216.448868 101.146439 219.100082 101.771469 C 221.751312 102.3965 226.404678 104.218323 229.440964 105.820007 C 232.477249 107.421692 236.387177 110.115555 238.129776 111.806122 C 239.872375 113.496689 242.235062 116.887253 243.380035 119.340652 C 244.861633 122.51545 245.28096 124.77317 244.834106 127.17231 C 244.488708 129.026093 242.701401 132.22052 240.862152 134.270935 C 239.022888 136.321365 235.613327 138.926834 233.285248 140.060898 C 230.957184 141.194717 225.950134 142.997406 222.158493 144.066818 C 218.366867 145.135986 213.048676 146.575897 210.340347 147.266571 C 207.632019 147.957214 203.865036 148.866791 201.969162 149.287689 C 200.073288 149.708801 194.976776 150.761749 190.643433 151.627502 C 184.882111 152.778748 182.235352 153.820801 180.794983 155.504822 C 179.711685 156.771362 176.500351 160.977051 173.658707 164.850754 C 170.817169 168.724457 166.385361 173.662231 163.810242 175.823792 C 161.235245 177.985138 157.34227 180.665436 155.159302 181.779633 C 152.976349 182.894104 148.748795 184.520477 145.764801 185.394226 C 142.780685 186.26796 136.589584 187.647583 132.006653 188.459808 C 127.423615 189.272034 120.793221 189.892456 117.272446 189.838455 Z M 50.302952 147.986282 C 52.614067 147.795456 52.735733 147.50946 52.286346 143.319489 C 52.023064 140.86441 51.80138 136.177765 51.793926 132.904388 C 51.78635 129.631027 52.086903 123.71563 52.46175 119.759109 C 53.14328 112.565079 53.14328 112.565079 49.01479 113.215042 C 46.744186 113.572479 42.227268 114.730042 38.977226 115.787582 C 35.727188 116.845123 30.994833 118.839127 28.460709 120.21875 C 25.63661 121.756256 23.39967 123.829933 22.681593 125.576195 C 22.037092 127.14325 21.719349 129.529083 21.975418 130.878189 C 22.231487 132.227295 23.59046 134.848999 24.995356 136.703979 C 26.400372 138.559219 29.456253 140.969757 31.786245 142.060699 C 34.116356 143.151672 37.79546 144.608795 39.962074 145.298706 C 42.128685 145.988403 44.787842 146.921234 45.871147 147.371185 C 46.954453 147.821365 48.948788 148.09816 50.302952 147.986282 Z M 193.373169 141.718292 C 196.205078 140.903397 201.402924 139.356674 204.923706 138.281219 C 208.444473 137.20575 213.177063 135.428986 215.44046 134.332932 C 218.052612 133.067856 220.684601 130.631653 222.646103 127.662697 C 224.8703 124.296104 225.6194 122.162369 225.318726 120.049469 C 225.054245 118.190353 223.420563 115.790253 220.864685 113.50589 C 218.295456 111.209427 214.386368 109.121948 210.10965 107.762421 C 205.126511 106.178421 200.883926 105.626755 193.686691 105.626755 C 183.982635 105.626755 183.982635 105.626755 184.502701 109.346436 C 184.788712 111.392258 185.556793 115.155777 186.209595 117.709656 C 186.871765 120.300842 187.251419 126.438789 187.068451 131.596451 C 186.888107 136.680252 187.074341 141.370773 187.482361 142.019775 C 188.048126 142.919922 189.445328 142.84848 193.373169 141.718292 Z"/>
    <path fill="currentColor" fill-rule="evenodd" stroke="none" d="M 117.272446 189.838455 C 113.751671 189.784454 108.199532 189.149017 104.934586 188.426392 C 101.669525 187.703766 96.129768 186.014404 92.624016 184.672333 C 89.118149 183.329987 83.369095 180.589157 79.84832 178.581116 C 76.327545 176.573303 71.302811 172.839584 68.682243 170.283997 C 66.061684 167.728424 62.615322 163.754456 61.023727 161.453156 C 58.928284 158.423416 57.117764 157.01062 54.462578 156.333282 C 52.445641 155.818909 48.357906 155.183716 45.378723 154.921936 C 42.399544 154.660156 36.195087 153.705765 31.590887 152.801025 C 26.986685 151.896057 21.407137 150.31665 19.191715 149.291077 C 16.976294 148.265503 13.700889 146.186493 11.91285 144.671265 C 10.124933 143.156036 7.839783 140.558075 6.834741 138.898254 C 5.829698 137.238205 5.005708 134.944397 5.003784 133.800659 C 5.00174 132.657135 5.750593 130.205933 6.667995 128.353851 C 7.585277 126.501999 10.355155 122.958855 12.823279 120.480774 C 15.291285 118.002441 19.526529 114.721329 22.234854 113.189377 C 24.94318 111.657196 31.076824 109.105728 35.865322 107.519287 C 40.653702 105.932861 46.045948 104.634842 47.848049 104.634842 C 49.650036 104.634842 53.049866 103.803482 55.403183 102.787598 C 58.95834 101.252747 60.179417 99.953049 62.624943 95.100266 C 64.48896 91.401413 68.637405 86.168686 73.939247 80.828918 C 80.306595 74.415863 84.103157 71.513245 89.799683 68.702911 C 93.918793 66.670898 99.90168 64.281433 103.095093 63.393173 C 106.288513 62.504654 111.840286 61.230377 115.432358 60.561035 C 120.621666 59.594055 123.757736 59.600113 130.697464 60.59082 C 135.501114 61.276627 142.396942 62.796234 146.021469 63.968079 C 149.645874 65.139679 154.606415 67.429352 157.044724 69.055984 C 159.48291 70.682617 164.203842 75.224457 167.535629 79.149002 C 170.86731 83.073547 174.917526 88.616989 176.535934 91.467773 C 178.889969 95.614151 180.201218 96.853073 183.091309 97.661667 C 185.078323 98.217438 189.441833 98.674881 192.788055 98.677795 C 196.134262 98.680939 202.338837 99.122406 206.575882 99.659286 C 210.813049 100.195938 216.448868 101.146439 219.100082 101.771469 C 221.751312 102.3965 226.404678 104.218323 229.440964 105.820007 C 232.477249 107.421692 236.387177 110.115555 238.129776 111.806122 C 239.872375 113.496689 242.235062 116.887253 243.380035 119.340652 C 244.861633 122.51545 245.28096 124.77317 244.834106 127.17231 C 244.488708 129.026093 242.701401 132.22052 240.862152 134.270935 C 239.022888 136.321365 235.613327 138.926834 233.285248 140.060898 C 230.957184 141.194717 225.950134 142.997406 222.158493 144.066818 C 218.366867 145.135986 213.048676 146.575897 210.340347 147.266571 C 207.632019 147.957214 203.865036 148.866791 201.969162 149.287689 C 200.073288 149.708801 194.976776 150.761749 190.643433 151.627502 C 184.882111 152.778748 182.235352 153.820801 180.794983 155.504822 C 179.711685 156.771362 176.500351 160.977051 173.658707 164.850754 C 170.817169 168.724457 166.385361 173.662231 163.810242 175.823792 C 161.235245 177.985138 157.34227 180.665436 155.159302 181.779633 C 152.976349 182.894104 148.748795 184.520477 145.764801 185.394226 C 142.780685 186.26796 136.589584 187.647583 132.006653 188.459808 C 127.423615 189.272034 120.793221 189.892456 117.272446 189.838455 Z M 50.302952 147.986282 C 52.614067 147.795456 52.735733 147.50946 52.286346 143.319489 C 52.023064 140.86441 51.80138 136.177765 51.793926 132.904388 C 51.78635 129.631027 52.086903 123.71563 52.46175 119.759109 C 53.14328 112.565079 53.14328 112.565079 49.01479 113.215042 C 46.744186 113.572479 42.227268 114.730042 38.977226 115.787582 C 35.727188 116.845123 30.994833 118.839127 28.460709 120.21875 C 25.63661 121.756256 23.39967 123.829933 22.681593 125.576195 C 22.037092 127.14325 21.719349 129.529083 21.975418 130.878189 C 22.231487 132.227295 23.59046 134.848999 24.995356 136.703979 C 26.400372 138.559219 29.456253 140.969757 31.786245 142.060699 C 34.116356 143.151672 37.79546 144.608795 39.962074 145.298706 C 42.128685 145.988403 44.787842 146.921234 45.871147 147.371185 C 46.954453 147.821365 48.948788 148.09816 50.302952 147.986282 Z M 193.373169 141.718292 C 196.205078 140.903397 201.402924 139.356674 204.923706 138.281219 C 208.444473 137.20575 213.177063 135.428986 215.44046 134.332932 C 218.052612 133.067856 220.684601 130.631653 222.646103 127.662697 C 224.8703 124.296104 225.6194 122.162369 225.318726 120.049469 C 225.054245 118.190353 223.420563 115.790253 220.864685 113.50589 C 218.295456 111.209427 214.386368 109.121948 210.10965 107.762421 C 205.126511 106.178421 200.883926 105.626755 193.686691 105.626755 C 183.982635 105.626755 183.982635 105.626755 184.502701 109.346436 C 184.788712 111.392258 185.556793 115.155777 186.209595 117.709656 C 186.871765 120.300842 187.251419 126.438789 187.068451 131.596451 C 186.888107 136.680252 187.074341 141.370773 187.482361 142.019775 C 188.048126 142.919922 189.445328 142.84848 193.373169 141.718292 Z"/>
</svg>
