<?xml version="1.0" encoding="UTF-8"?>
<svg width="132" height="151" viewBox="0 0 132 151" xmlns="http://www.w3.org/2000/svg">
    <path fill="currentColor" fill-rule="evenodd" stroke="none" d="M 22.823807 151.837143 C 22.063938 152.121857 21.176168 151.643188 20.850956 150.773788 C 20.488197 149.803894 21.666658 147.504089 23.900328 144.822052 C 25.902712 142.418121 27.547125 139.707687 27.554659 138.798676 C 27.566151 137.412247 26.366806 137.136261 20.106838 137.084381 C 15.818545 137.048828 12.36279 136.556702 11.981054 135.92691 C 11.615741 135.324448 12.714972 133.411774 14.423832 131.676605 C 16.132692 129.941452 17.214716 128.022507 16.828289 127.412033 C 16.441864 126.801552 13.161089 126.045326 9.537615 125.731621 C 5.914204 125.417671 1.878039 124.575569 0.568488 123.860428 C -1.765997 122.585129 -1.773941 122.531898 0.164137 121.129593 C 1.251282 120.342941 9.163823 116.286186 17.747541 112.114716 C 26.331259 107.943237 39.479279 100.562775 46.965527 95.71344 C 57.227398 89.066254 63.477055 84.062866 72.362579 75.381073 C 80.84539 67.092796 84.946213 62.260719 86.995712 58.13797 C 89.312744 53.477531 89.666794 51.894775 88.89624 49.642761 C 88.359718 48.074921 86.814949 46.465652 85.332405 45.930107 C 83.4748 45.259171 79.31073 45.625183 70.978867 47.19178 C 60.076801 49.241714 59.125435 49.280128 57.602936 47.731308 C 56.080315 46.182487 56.455524 45.576111 62.877228 39.207718 C 66.679619 35.436821 70.016235 31.221367 70.292099 29.840073 C 70.675255 27.920479 69.458611 25.522926 65.131256 19.670029 C 61.41367 14.641586 59.689701 11.450058 60.111626 10.376907 C 60.574074 9.199997 61.520824 8.906036 63.491531 9.327301 C 64.997147 9.648941 69.601677 11.348724 73.723793 13.104782 C 77.845909 14.860596 82.249466 16.113617 83.509636 15.88913 C 84.769684 15.664886 89.25798 11.818848 93.483658 7.342758 C 97.709335 2.866684 101.665977 -0.624405 102.276443 -0.415039 C 102.886787 -0.205933 103.694351 1.287003 104.071098 2.902512 C 104.447845 4.518021 105.269699 10.061859 105.897522 15.222443 C 107.001648 24.297905 107.140121 24.649605 110.128319 25.961197 C 111.827507 26.707001 115.693619 28.053551 118.719742 28.953423 C 121.745865 29.853287 126.213326 31.179344 128.647339 31.899887 C 131.081482 32.62043 133.247696 33.749313 133.461227 34.408585 C 133.674774 35.067604 132.800354 35.820496 131.517975 36.081291 C 130.235596 36.342094 125.544754 36.976143 121.093742 37.490181 C 116.64286 38.004227 111.749794 38.888924 110.220406 39.456085 C 107.439629 40.487625 107.439629 40.487625 108.052635 53.092209 C 108.506012 62.41729 108.348358 66.004288 107.446495 66.87944 C 106.501427 67.796608 105.559113 67.304985 103.253151 64.692627 C 101.617249 62.839348 99.674919 61.549164 98.937035 61.8255 C 98.199028 62.10183 96.611519 65.20591 95.409134 68.723251 C 94.206871 72.240601 91.466347 78.458717 89.319244 82.541458 C 87.17202 86.624199 82.410362 94.680717 78.737732 100.444778 C 75.065109 106.208839 69.512627 113.838928 66.398842 117.4002 C 63.285065 120.961472 58.130665 126.244873 54.944664 129.140945 C 51.758663 132.037018 45.802773 137.087906 41.709332 140.364746 C 37.615891 143.641815 32.00293 147.447189 29.236084 148.82132 C 26.469179 150.195435 23.583611 151.552658 22.823807 151.837143 Z"/>
</svg>
