<?xml version="1.0" encoding="UTF-8"?>
<!-- Generated by Pixelmator Pro 3.4.2 -->
<svg width="95" height="95" viewBox="0 0 95 95" xmlns="http://www.w3.org/2000/svg">
    <path fill="currentColor" fill-rule="evenodd" stroke="none" d="M 44.046021 87.579582 C 43.456024 87.770599 42.541195 87.370941 42.013046 86.691689 C 41.484909 86.012436 39.572601 80.909485 37.763481 75.351883 C 35.954372 69.794296 33.921261 64.665726 33.245468 63.955223 C 32.247444 62.905922 30.552124 62.864807 24.215845 63.736015 C 19.925346 64.325981 14.768892 65.165001 12.757057 65.600845 C 10.745222 66.036446 8.572649 66.076859 7.929124 65.690598 C 7.2856 65.304329 6.924915 64.555534 7.127599 64.026413 C 7.330297 63.497536 10.394745 60.776539 13.937488 57.979885 C 17.48023 55.183231 21.915785 51.467907 23.794252 49.723377 C 27.209677 46.551739 27.209677 46.551739 24.008352 37.133152 C 22.24762 31.952892 19.849937 25.648849 18.680138 23.124275 C 17.109673 19.734833 16.843752 18.251808 17.663712 17.455551 C 18.483654 16.659286 20.280285 16.961441 24.531393 18.611053 C 27.697876 19.839622 33.187237 22.343994 36.72998 24.176399 C 40.272724 26.008804 44.121925 27.703522 45.28376 27.942238 C 46.854618 28.265297 49.215992 26.709435 54.494278 21.873848 C 58.398235 18.297386 63.595634 13.658699 66.044075 11.565727 C 68.492523 9.472763 71.259644 7.702858 72.193253 7.632607 C 73.193939 7.557182 74.006302 8.294937 74.172348 9.429535 C 74.327263 10.488235 73.614166 13.086586 72.587685 15.203751 C 71.561218 17.320923 69.272903 23.109711 67.502571 28.067467 C 64.814308 35.595848 64.503899 37.2854 65.619293 38.318729 C 66.353821 38.999153 70.522339 41.281258 74.882629 43.389969 C 79.242928 45.498913 83.925308 48.130863 85.287903 49.238903 C 87.352142 50.917412 87.523979 51.407524 86.318222 52.176765 C 85.522293 52.684498 81.731804 53.785728 77.894913 54.623806 C 74.057999 55.461887 68.020103 56.832371 64.477364 57.669041 C 60.93462 58.505947 57.05032 60.120075 55.845577 61.256313 C 54.640846 62.392548 52.477421 66.35363 51.037968 70.058853 C 49.598495 73.764069 47.677795 79.143806 46.769741 82.013763 C 45.861687 84.883957 44.636017 87.388565 44.046021 87.579582 Z"/>
</svg>
